<svg width="80" height="80" viewBox="0 0 80 80" fill="none" xmlns="http://www.w3.org/2000/svg">
<path d="M8 24H24V8C24 5.87827 24.8429 3.84344 26.3431 2.34315C27.8434 0.842854 29.8783 0 32 0H48C50.1217 0 52.1566 0.842854 53.6569 2.34315C55.1571 3.84344 56 5.87827 56 8V24H72C74.1217 24 76.1566 24.8429 77.6569 26.3431C79.1571 27.8434 80 29.8783 80 32V48C80 50.1217 79.1571 52.1566 77.6569 53.6569C76.1566 55.1571 74.1217 56 72 56H56V72C56 74.1217 55.1571 76.1566 53.6569 77.6569C52.1566 79.1571 50.1217 80 48 80H32C29.8783 80 27.8434 79.1571 26.3431 77.6569C24.8429 76.1566 24 74.1217 24 72V56H8C5.87827 56 3.84344 55.1571 2.34315 53.6569C0.842854 52.1566 0 50.1217 0 48V32C0 29.8783 0.842854 27.8434 2.34315 26.3431C3.84344 24.8429 5.87827 24 8 24Z" fill="#222222"/>
</svg>
